<!DOCTYPE svg PUBLIC "-//W3C//DTD SVG 1.1//EN" "http://www.w3.org/Graphics/SVG/1.1/DTD/svg11.dtd">
<!-- Uploaded to: SVG Repo, www.svgrepo.com, Transformed by: SVG Repo Mixer Tools -->
<svg fill="#6dfff8" height="256px" width="256px" version="1.1" id="Layer_1" xmlns="http://www.w3.org/2000/svg" xmlns:xlink="http://www.w3.org/1999/xlink" viewBox="0 0 512 512" xml:space="preserve">
<g id="SVGRepo_bgCarrier" stroke-width="0"/>
<g id="SVGRepo_tracerCarrier" stroke-linecap="round" stroke-linejoin="round"/>
<g id="SVGRepo_iconCarrier"> <g> <g> <g> <path d="M327.726,152.63h59.906c5.625,0,10.653-3.99,11.453-9.558c0.998-6.937-4.358-12.889-11.103-12.889h-59.906 c-5.625,0-10.653,3.99-11.453,9.558C315.625,146.678,320.981,152.63,327.726,152.63z"/> <path d="M303.783,197.523h11.434c5.625,0,10.653-3.99,11.453-9.558c0.998-6.937-4.358-12.889-11.103-12.889h-11.434 c-5.625,0-10.653,3.99-11.453,9.558C291.682,191.571,297.038,197.523,303.783,197.523z"/> <path d="M350.516,197.523h14.328c5.625,0,10.653-3.99,11.453-9.558c0.998-6.938-4.358-12.889-11.103-12.889h-14.328 c-5.625,0-10.653,3.99-11.453,9.558C338.415,191.571,343.771,197.523,350.516,197.523z"/> <path d="M389.037,184.634c-0.998,6.937,4.358,12.889,11.103,12.889h11.434c5.625,0,10.653-3.99,11.453-9.558 c0.999-6.938-4.357-12.889-11.103-12.889H400.49C394.865,175.076,389.837,179.066,389.037,184.634z"/> <path d="M303.783,242.416h11.434c5.625,0,10.653-3.99,11.453-9.558c0.998-6.937-4.358-12.889-11.103-12.889h-11.434 c-5.625,0-10.653,3.99-11.453,9.558C291.682,236.465,297.038,242.416,303.783,242.416z"/> <path d="M350.516,242.416h14.328c5.625,0,10.653-3.99,11.453-9.558c0.998-6.938-4.358-12.889-11.103-12.889h-14.328 c-5.625,0-10.653,3.99-11.453,9.558C338.415,236.465,343.771,242.416,350.516,242.416z"/> <path d="M400.14,242.416h11.434c5.625,0,10.653-3.99,11.453-9.558c0.999-6.938-4.357-12.889-11.103-12.889H400.49 c-5.625,0-10.653,3.99-11.453,9.558C388.039,236.465,393.395,242.416,400.14,242.416z"/> <path d="M303.783,287.31h11.784c6.199,0,11.223-5.026,11.223-11.223s-5.025-11.223-11.223-11.223h-11.784 c-6.199,0-11.223,5.026-11.223,11.223S297.585,287.31,303.783,287.31z"/> <path d="M350.516,287.31h14.678c6.199,0,11.223-5.026,11.223-11.223s-5.025-11.223-11.223-11.223h-14.678 c-6.199,0-11.223,5.026-11.223,11.223S344.318,287.31,350.516,287.31z"/> <path d="M411.925,264.863H400.14c-6.199,0-11.223,5.026-11.223,11.223s5.025,11.223,11.223,11.223h11.784 c6.199,0,11.223-5.026,11.223-11.223S418.123,264.863,411.925,264.863z"/> <path d="M387.982,309.757h-60.256c-6.199,0-11.223,5.026-11.223,11.223c0,6.198,5.025,11.223,11.223,11.223h60.256 c6.199,0,11.223-5.026,11.223-11.223C399.205,314.782,394.181,309.757,387.982,309.757z"/> <path d="M500.777,22.68h-53.136v-2.245c0-6.198-5.025-11.223-11.223-11.223L11.223,8.994C5.025,8.994,0,14.02,0,20.218v56.117 c0,6.199,5.025,11.223,11.223,11.223h5.788c-1.136,17.712,6.154,38.889,22.045,64.207c0.001,0.001,0.002,0.002,0.003,0.004 c21.732,34.634,56.781,72.486,84.926,102.884c-0.002,1.012-0.003,1.681-0.007,2.694c-0.005,0.004-0.009,0.009-0.012,0.013 C74.461,310.829,14.073,376.066,17.047,424.442h-5.824C5.025,424.442,0,429.467,0,435.666v56.117 c0,6.199,5.025,11.223,11.223,11.223h308.642c6.199,0,11.223-5.025,11.223-11.223v-45.111h169.688 c6.199,0,11.223-5.025,11.223-11.223V33.904C512,27.706,506.975,22.68,500.777,22.68z M331.089,31.659h94.105v35.915h-94.105 V31.659z M444.66,90.02v289.31H302.724c-7.737-15.8-18.861-32.297-31.676-48.838V181.444c7.747-9.99,14.891-19.962,20.987-29.682 c0.001-0.002,0.003-0.005,0.005-0.007c15.16-24.145,22.49-44.529,22.143-61.735H444.66z M176.322,346.914v-51.248l15.552-21.733 c25.241,27.26,53.591,57.999,73.953,87.354c18.781,27.079,27.404,48.267,25.728,63.153H240.41L176.322,346.914z M211.286,424.44 h-91.485l45.743-55.333L211.286,424.44z M207.045,254.716c13.04-14.08,27.562-29.76,41.557-45.98v94.474 c-13.65-15.794-28-31.293-41.539-45.914c-0.005-0.005-0.008-0.009-0.012-0.013C207.048,256.319,207.047,255.68,207.045,254.716z M22.447,65.111v-33.67h286.195v33.67H22.447z M55.404,135.496l0.003-0.008C43.516,115.59,38.201,99.524,39.536,87.559h252.016 c1.341,11.969-3.97,28.029-15.86,47.917l0.003,0.008c-11.472,2.338-18.871,7.751-24.972,12.226 c-7.164,5.256-12.34,9.052-23.967,9.052s-16.805-3.796-23.969-9.048c-8.14-5.969-18.27-13.398-37.255-13.398 c-18.971,0-29.097,7.428-37.232,13.396c-7.164,5.255-12.339,9.05-23.969,9.05c-11.631,0-16.807-3.796-23.971-9.048 C74.263,143.242,66.869,137.834,55.404,135.496z M84.199,175.79c5.435,2.043,11.964,3.419,20.132,3.419 c18.98,0,29.108-7.429,37.246-13.398c7.16-5.253,12.334-9.048,23.955-9.048c11.636,0,16.815,3.797,23.982,9.052 c8.138,5.967,18.266,13.395,37.242,13.395c8.177,0,14.713-1.379,20.153-3.428c-17.896,22.182-38.471,44.398-56.244,63.588 c-2.839,3.065-25.121,32.787-25.121,32.787s-22.304-29.746-25.155-32.826C122.636,220.156,102.081,197.953,84.199,175.79z M65.239,361.32c20.362-29.365,48.727-60.118,73.972-87.386l14.663,20.49v53.42c0,0.047,0.007,0.093,0.007,0.14L90.677,424.44 H39.531C37.856,409.559,46.473,388.382,65.239,361.32z M308.642,480.559H22.447v-33.67h286.195V480.559z M489.553,424.225 L489.553,424.225H314.053c0.412-7.148-0.542-14.659-2.649-22.447h144.479c6.199,0,11.223-5.025,11.223-11.223V78.797 c0-6.199-5.025-11.223-11.223-11.223h-8.242V45.127h41.912V424.225z"/> </g> </g> </g> </g>
</svg>